<?xml version="1.0" encoding="utf-8"?>
<!-- Generator: Adobe Illustrator 19.2.1, SVG Export Plug-In . SVG Version: 6.00 Build 0)  -->
<svg version="1.1" id="Layer_1" xmlns="http://www.w3.org/2000/svg" xmlns:xlink="http://www.w3.org/1999/xlink" x="0px" y="0px"
	 width="35.9px" height="51.6px" viewBox="0 0 35.9 51.6" style="enable-background:new 0 0 35.9 51.6;" xml:space="preserve">
<path d="M1.5,51.6c-0.5,0-0.9-0.2-1.2-0.6c-0.5-0.7-0.4-1.6,0.3-2.1l31.2-23.1L3,4.5v29.3c0,0.8-0.7,1.5-1.5,1.5S0,34.6,0,33.8V1.5
	c0-0.6,0.3-1.1,0.8-1.3C1.3-0.1,1.9,0,2.4,0.3l32.9,24.3c0.4,0.3,0.6,0.7,0.6,1.2s-0.2,0.9-0.6,1.2L2.4,51.3
	C2.1,51.5,1.8,51.6,1.5,51.6z"/>
</svg>
